<?xml version="1.0" encoding="UTF-8"?>
<svg id="Layer_17" data-name="Layer 17" xmlns="http://www.w3.org/2000/svg" xmlns:xlink="http://www.w3.org/1999/xlink" viewBox="0 0 1024 1024">
  <defs>
    <style>
      .cls-1 {
        fill: none;
      }

      .cls-2 {
        fill: #2c2c2c;
      }

      .cls-3 {
        fill: #969696;
      }

      .cls-4 {
        fill: #ffc807;
        stroke: #f7941d;
        stroke-width: 1.5px;
      }

      .cls-4, .cls-5, .cls-6 {
        stroke-miterlimit: 10;
      }

      .cls-5 {
        fill: #999;
        stroke: #999;
        stroke-width: 6.04px;
      }

      .cls-7 {
        fill: #dce5ee;
      }

      .cls-8 {
        clip-path: url(#clippath-1);
      }

      .cls-9 {
        fill: #fff;
      }

      .cls-10 {
        opacity: .75;
      }

      .cls-11 {
        opacity: .72;
      }

      .cls-6 {
        stroke: #000;
      }

      .cls-6, .cls-12 {
        fill: #585859;
      }

      .cls-13 {
        fill: #2e2f2f;
      }

      .cls-14 {
        clip-path: url(#clippath);
      }
    </style>
    <clipPath id="clippath">
      <rect class="cls-1" x="0" y="0" width="1024" height="1024" rx="179.65" ry="179.65"/>
    </clipPath>
    <clipPath id="clippath-1">
      <ellipse class="cls-1" cx="510.84" cy="501.9" rx="122.9" ry="119.91"/>
    </clipPath>
  </defs>
  <g class="cls-14">
    <rect class="cls-2" x="-377" y="-350.92" width="1839.61" height="1838.01"/>
  </g>
  <rect class="cls-12" x="0" y="0" width="1024" height="972.68" rx="179.65" ry="179.65"/>
  <rect class="cls-13" x="54.82" y="49.97" width="914.36" height="872.73" rx="179.65" ry="179.65"/>
  <rect class="cls-6" x="54.82" y="83.7" width="914.36" height="839" rx="179.65" ry="179.65"/>
  <ellipse class="cls-3" cx="515.98" cy="490.36" rx="271.8" ry="273.79"/>
  <ellipse class="cls-7" cx="518.94" cy="483.75" rx="268.83" ry="267.17"/>
  <ellipse class="cls-7" cx="515.98" cy="483.75" rx="271.8" ry="267.17"/>
  <circle class="cls-4" cx="520.29" cy="483.75" r="237.59"/>
  <ellipse class="cls-5" cx="515.98" cy="483.75" rx="241.91" ry="237"/>
  <ellipse class="cls-7" cx="515.27" cy="487.71" rx="237.04" ry="232.55"/>
  <circle class="cls-3" cx="511.31" cy="485.94" r="122.9"/>
  <g class="cls-8">
    <ellipse class="cls-12" cx="510.84" cy="478.31" rx="122.9" ry="128"/>
  </g>
  <polygon class="cls-7" points="333.44 285.19 307.8 310.83 186.21 178.54 200.06 164.7 333.44 285.19"/>
  <polygon class="cls-3" points="186.21 178.54 185.78 179.65 301.83 319.2 307.8 310.83 186.21 178.54"/>
  <polygon class="cls-7" points="307.28 656.1 332.93 681.75 196.42 807.55 182.57 793.7 307.28 656.1"/>
  <polygon class="cls-3" points="196.42 807.55 197.53 807.98 337.08 691.93 328.71 685.97 196.42 807.55"/>
  <polygon class="cls-7" points="727.27 653.45 701.63 679.1 840.36 807.11 854.2 793.27 727.27 653.45"/>
  <polygon class="cls-3" points="840.36 807.11 839.25 807.55 699.69 691.5 708.06 685.53 840.36 807.11"/>
  <polygon class="cls-7" points="700.26 285.6 725.9 311.24 847.49 178.95 833.64 165.11 700.26 285.6"/>
  <polygon class="cls-3" points="847.49 178.54 847.92 179.65 731.87 319.2 725.9 310.83 847.49 178.54"/>
  <circle class="cls-1" cx="510.84" cy="487.71" r="122.9"/>
  <g class="cls-11">
    <path class="cls-9" d="M858.42,477.4v-50.44h-.31l-10.92,7.18c-1.45.98-2.54,1.32-4.14,1.32-3.16,0-5.49-2.15-5.49-5.27,0-2.25.93-3.91,3.36-5.52l14.8-9.67c3.62-2.34,6.11-2.78,9.32-2.78,5.54,0,8.85,3.17,8.85,8.25v56.93c0,4.44-3.11,7.37-7.71,7.37s-7.76-2.93-7.76-7.37Z"/>
    <path class="cls-9" d="M909.29,477.4v-50.44h-.31l-10.92,7.18c-1.45.98-2.54,1.32-4.14,1.32-3.16,0-5.49-2.15-5.49-5.27,0-2.25.93-3.91,3.36-5.52l14.8-9.67c3.62-2.34,6.11-2.78,9.32-2.78,5.54,0,8.85,3.17,8.85,8.25v56.93c0,4.44-3.11,7.37-7.71,7.37s-7.76-2.93-7.76-7.37Z"/>
    <path class="cls-9" d="M828.92,596.03v-56.01c0-4.88,2.9-7.71,7.82-7.71s7.82,2.83,7.82,7.71v51.51h26.5c4.24,0,7.09,2.29,7.09,6.1s-2.79,6.1-7.09,6.1h-34.32c-4.92,0-7.82-2.83-7.82-7.71Z"/>
    <path class="cls-9" d="M886.47,596.03v-55.08c0-4.83,2.9-7.67,7.82-7.67h24.69c14.03,0,22.83,6.79,22.83,17.58,0,7.71-6.11,14.16-14.03,15.28v.39c10.14.73,17.6,7.71,17.6,17.04,0,12.4-9.89,20.17-25.83,20.17h-25.26c-4.92,0-7.82-2.83-7.82-7.71ZM913.33,562.58c8.33,0,13.09-3.47,13.09-9.42s-4.19-8.89-11.49-8.89h-12.84v18.31h11.23ZM915.55,592.76c9.01,0,13.87-3.61,13.87-10.35s-5.02-10.11-14.23-10.11h-13.09v20.46h13.46Z"/>
  </g>
  <g class="cls-10">
    <path class="cls-9" d="M126.53,472.61c-.73-1.56-1.17-3.08-1.17-4.83,0-3.76,2.34-6.01,6.14-6.01,2.93,0,4.78,1.03,6.44,3.66,2.54,5.08,6.68,8.15,13.02,8.15,7.66,0,13.17-5.52,13.17-13.13s-5.46-12.7-13.12-12.7c-4.19,0-7.71,1.81-10.19,4.2-2.88,2.69-4.34,3.42-7.61,3.42-4.83,0-7.12-3.37-6.92-7.32,0-.2,0-.34.05-.59l2.05-25.83c.49-5.96,3.56-8.35,9.27-8.35h30.87c3.66,0,6.05,2.29,6.05,5.86s-2.34,5.86-6.05,5.86h-27.8l-1.66,19.58h.29c2.88-4.54,8.63-7.37,15.8-7.37,13.46,0,23.02,9.47,23.02,22.9,0,15.04-11.17,25.2-27.21,25.2-11.17,0-20.92-5.22-24.43-12.7Z"/>
    <path class="cls-9" d="M88.2,597.01v-56.98c0-4.88,2.73-7.71,7.36-7.71s7.36,2.83,7.36,7.71v24.41h.44l26.48-28.96c2.05-2.25,3.9-3.17,6.34-3.17,3.9,0,6.92,2.98,6.92,6.79,0,2.05-.73,3.66-2.58,5.62l-19.41,20.36,21.12,25.68c2.19,2.73,3.17,4.83,3.17,6.84,0,4-3.07,7.13-7.12,7.13-3.02,0-5.07-1.12-7.36-4.05l-20.97-25.83-7.02,7.37v14.79c0,4.83-2.73,7.67-7.36,7.67s-7.36-2.83-7.36-7.67Z"/>
    <path class="cls-9" d="M149.06,568.3c0-22.56,12.87-36.23,33.55-36.23,13.51,0,24.09,6.35,28.04,14.99.83,1.71,1.07,3.12,1.07,4.54,0,3.76-2.58,6.35-6.44,6.35-3.12,0-5.32-1.32-7.12-4.3-3.46-6.3-8.58-9.38-15.51-9.38-11.61,0-18.58,8.84-18.58,23.83s7.41,24.61,19.12,24.61c9.61,0,16.29-5.91,16.58-14.65l.05-1.12h-10.24c-3.51,0-5.9-2-5.9-5.37s2.34-5.37,5.9-5.37h17.21c4.63,0,7.36,2.83,7.36,7.67v1.07c0,17.92-11.36,29.98-31.21,29.98-21.02,0-33.89-13.72-33.89-36.62Z"/>
  </g>
</svg>